<?xml version="1.0" encoding="UTF-8" standalone="no"?>
<!-- Created with Inkscape (http://www.inkscape.org/) -->

<svg
   xmlns:dc="http://purl.org/dc/elements/1.1/"
   xmlns:cc="http://creativecommons.org/ns#"
   xmlns:rdf="http://www.w3.org/1999/02/22-rdf-syntax-ns#"
   xmlns:svg="http://www.w3.org/2000/svg"
   xmlns="http://www.w3.org/2000/svg"
   xmlns:sodipodi="http://sodipodi.sourceforge.net/DTD/sodipodi-0.dtd"
   xmlns:inkscape="http://www.inkscape.org/namespaces/inkscape"
   id="svg4982"
   version="1.1"
   inkscape:version="0.91 r13725"
   xml:space="preserve"
   width="271.93472"
   height="117.7915"
   viewBox="0 0 271.93472 117.79151"
   sodipodi:docname="funcgen.svg"><sodipodi:namedview
     pagecolor="#ffffff"
     bordercolor="#666666"
     borderopacity="1"
     objecttolerance="10"
     gridtolerance="10"
     guidetolerance="10"
     inkscape:pageopacity="0"
     inkscape:pageshadow="2"
     inkscape:window-width="1920"
     inkscape:window-height="1136"
     id="namedview4984"
     showgrid="false"
     fit-margin-top="0"
     fit-margin-left="0"
     fit-margin-right="0"
     fit-margin-bottom="0"
     inkscape:zoom="1.3875721"
     inkscape:cx="-75.341534"
     inkscape:cy="170.13678"
     inkscape:window-x="0"
     inkscape:window-y="30"
     inkscape:window-maximized="1"
     inkscape:current-layer="g4990"
     showguides="true" /><metadata
     id="metadata4988"><rdf:RDF><cc:Work
         rdf:about=""><dc:format>image/svg+xml</dc:format><dc:type
           rdf:resource="http://purl.org/dc/dcmitype/StillImage" /><dc:title></dc:title></cc:Work></rdf:RDF></metadata><defs
     id="defs4986"><inkscape:perspective
       id="perspective17204"
       inkscape:persp3d-origin="172.26121 : 53.210756 : 1"
       inkscape:vp_z="218.48997 : 58.180961 : 1"
       inkscape:vp_y="0 : 294.70357 : 0"
       inkscape:vp_x="126.03246 : 58.180961 : 1"
       sodipodi:type="inkscape:persp3d" /></defs><g
     transform="matrix(1.25,0,0,-1.25,-89.893268,229.07971)"
     inkscape:label="01metodos"
     inkscape:groupmode="layer"
     id="g4990"><g
       transform="translate(72.731213,192.68073)"
       id="g5034"><path
         inkscape:connector-curvature="0"
         id="path5036"
         style="fill:none;stroke:#da432e;stroke-width:2.31135988;stroke-linecap:butt;stroke-linejoin:miter;stroke-miterlimit:4;stroke-dasharray:none;stroke-opacity:1"
         d="m 6.29929,-87.02933 c -6.56463,8.5488 -6.34311,21.10384 -5.56031,31.85388 0.74686,10.25609 -0.11796,26.09144 9.65155,29.30103 21.58541,7.09151 25.15778,-34.35367 55.56407,-39.47917 15.04249,-2.53569 -12.72283,-32.85291 -27.51872,-36.566 -11.45112,-2.87371 -24.94606,5.52634 -32.13659,14.89026 z" /></g><path
       inkscape:connector-curvature="0"
       id="path11655"
       d="m 86.339572,150.83279 c 0.117402,-0.21133 -0.226947,-0.26253 -0.351241,-0.19514 -0.336837,0.18262 -0.263041,0.65982 -0.03906,0.89762 0.400695,0.42538 1.087625,0.29237 1.44399,-0.11708 0.522991,-0.60088 0.324349,-1.52189 -0.273184,-1.99037 -0.796417,-0.62441 -1.958515,-0.35756 -2.53675,0.4293 -0.727641,0.99018 -0.391436,2.3963 0.585403,3.08312 1.183086,0.83183 2.834747,0.4257 3.629498,-0.74151 0.936598,-1.37551 0.4602,-3.27359 -0.897622,-4.17588 -1.567653,-1.04172 -3.712701,-0.49487 -4.722246,1.05373 -1.147107,1.75962 -0.529654,4.15202 1.209829,5.26863 1.95145,1.25267 4.591461,0.56451 5.815006,-1.36595 1.358362,-2.14317 0.599452,-5.03101 -1.522048,-6.36137"
       style="fill:none;fill-rule:evenodd;stroke:#da432e;stroke-width:0.91899979px;stroke-linecap:butt;stroke-linejoin:miter;stroke-opacity:1" /><path
       inkscape:connector-curvature="0"
       id="path11657-7"
       d="m 127.58584,113.08868 -0.85464,5.93688 -4.11982,-7.5083 5.38221,2.64742 -8.41391,1.59799 4.18103,-4.30069 -1.08026,8.49592 -2.79819,-5.3054 7.74628,3.65278 -5.91042,1.02177 z"
       inkscape:transform-center-y="-0.014029631"
       inkscape:transform-center-x="0.51633989"
       style="fill:none;fill-opacity:1;stroke:#da432e;stroke-width:1.33576369;stroke-linecap:round;stroke-miterlimit:6;stroke-dasharray:none;stroke-opacity:1" /><path
       inkscape:connector-curvature="0"
       id="path11684"
       d="m 88.197793,130.70875 a 4.3971191,4.3971191 0 0 0 -4.397112,-4.39712 4.3971191,4.3971191 0 0 0 -4.397127,4.39712 4.3971191,4.3971191 0 0 0 4.397127,4.39711 4.3971191,4.3971191 0 0 0 4.397112,-4.39711 z"
       style="fill:#da432e;fill-opacity:1;stroke:none;stroke-width:1.60000002;stroke-linecap:round;stroke-miterlimit:6;stroke-dasharray:none;stroke-opacity:1" /><g
       id="g12908"
       transform="translate(-30.002643,-6.5586539)"><path
         style="fill:none;fill-rule:evenodd;stroke:#000000;stroke-width:0.80000001px;stroke-linecap:butt;stroke-linejoin:miter;stroke-opacity:1"
         d="m 169.5047,143.84838 c 42.95273,27.38596 62.26704,16.64779 62.26704,16.64779"
         id="path11688"
         inkscape:connector-curvature="0"
         sodipodi:nodetypes="cc" /><path
         style="fill:none;fill-rule:evenodd;stroke:#000000;stroke-width:0.80000001px;stroke-linecap:butt;stroke-linejoin:miter;stroke-opacity:1"
         d="m 231.51285,165.31131 0.37846,-4.86256 -4.53764,-2.05573"
         id="path11690"
         inkscape:connector-curvature="0"
         sodipodi:nodetypes="ccc" /></g><path
       inkscape:connector-curvature="0"
       id="path11657-9-3"
       d="m 107.22977,119.69377 -3.23522,0.58217 -2.31369,-2.33505 -0.44604,3.25679 -2.935745,1.47887 2.959545,1.43062 0.4993,3.24906 2.27516,-2.37262 3.24432,0.52915 -1.55343,-2.89699 z"
       inkscape:transform-center-y="-0.015649538"
       inkscape:transform-center-x="0.57596269"
       style="fill:none;fill-opacity:1;stroke:#da432e;stroke-width:1.49001241;stroke-linecap:round;stroke-miterlimit:6;stroke-dasharray:none;stroke-opacity:1" /><path
       sodipodi:nodetypes="sssssssss"
       inkscape:connector-curvature="0"
       id="path17201"
       d="m 279.41747,126.14246 c 5.096,-8.35482 -2.89722,-15.00574 -2.89722,-15.00574 -2.50264,-9.10561 -15.90215,-10.80746 -26.09153,-10.80746 -10.18938,0 -26.7876,-19.723468 -45.82098,6.9285 -5.07887,7.11182 -11.11713,18.58482 -9.65436,24.93844 2.45057,10.64427 14.88877,9.35887 21.47357,20.03779 6.9992,11.35098 15.90216,10.80746 26.09153,10.80746 10.18937,0 37.86362,-1.82387 44.54103,-8.50127 6.6774,-6.67741 -12.94792,-19.69881 -7.64204,-28.39772 z"
       style="fill:none;fill-opacity:1;stroke:#da432e;stroke-width:2;stroke-linecap:round;stroke-miterlimit:6;stroke-dasharray:none;stroke-opacity:1" /><text
       transform="scale(1,-1)"
       sodipodi:linespacing="125%"
       id="text17274"
       y="-158.67577"
       x="167.4783"
       style="font-style:normal;font-weight:normal;font-size:16.00000191px;line-height:125%;font-family:sans-serif;letter-spacing:0px;word-spacing:0px;fill:#da432e;fill-opacity:1;stroke:none;stroke-width:1px;stroke-linecap:butt;stroke-linejoin:miter;stroke-opacity:1"
       xml:space="preserve"><tspan
         style="font-style:normal;font-variant:normal;font-weight:normal;font-stretch:normal;font-size:36.00000763px;font-family:'XITS Math';-inkscape-font-specification:'XITS Math';fill:#da432e"
         y="-158.67577"
         x="167.4783"
         id="tspan17276"
         sodipodi:role="line">f</tspan></text>
<path
       transform="matrix(-0.7738377,-0.63338393,-0.63338393,0.7738377,86.229254,313.73331)"
       d="m 98.208717,-142.61127 c 1.04493,-1.47833 3.160873,-1.71289 4.596333,-0.67271 1.66205,1.20438 1.91876,3.60461 0.72147,5.22554 -1.36351,1.84598 -4.048503,2.12484 -5.854751,0.77024 -2.030039,-1.52243 -2.331052,-4.49252 -0.818999,-6.48396 1.681196,-2.21421 4.93663,-2.53738 7.11317,-0.86777 2.39846,1.83985 2.74379,5.38081 0.91653,7.74239 -0.49031,0.63368 -1.11357,1.16134 -1.81773,1.54328"
       sodipodi:t0="0.5221225"
       sodipodi:argument="-19.466747"
       sodipodi:radius="5.8492217"
       sodipodi:revolution="3.276854"
       sodipodi:expansion="1"
       sodipodi:cy="-140.62508"
       sodipodi:cx="100.52863"
       id="path17278"
       style="fill:#da432e;fill-rule:evenodd;stroke:none;stroke-width:0.08255109px;stroke-linecap:butt;stroke-linejoin:miter;stroke-opacity:1"
       sodipodi:type="spiral" /><g
       transform="translate(8.153602,-10.599683)"
       id="g17295"><path
         sodipodi:type="star"
         style="fill:none;fill-opacity:1;stroke:#da432e;stroke-width:0.59541649;stroke-linecap:round;stroke-miterlimit:6;stroke-dasharray:none;stroke-opacity:1"
         id="path17262"
         sodipodi:sides="5"
         sodipodi:cx="88.398621"
         sodipodi:cy="-114.31747"
         sodipodi:r1="5.2313204"
         sodipodi:r2="4.0546627"
         sodipodi:arg1="-0.41174623"
         sodipodi:arg2="0.21657233"
         inkscape:flatsided="false"
         inkscape:rounded="0"
         inkscape:randomized="0"
         d="m 93.192725,-116.41109 -0.83416,2.9649 -0.487326,3.04122 -3.077564,0.12287 -3.042963,0.47632 -1.067879,-2.88897 -1.393328,-2.74684 2.417578,-1.90835 2.181839,-2.17396 2.562025,1.70954 z"
         transform="matrix(0.99617559,-0.08737389,-0.08737389,-0.99617559,-9.7165609,8.6237862)"
         inkscape:transform-center-x="-0.040457227"
         inkscape:transform-center-y="-0.16973397" /><path
         style="fill:none;fill-opacity:1;stroke:#da432e;stroke-width:1.01421595;stroke-linecap:round;stroke-miterlimit:6;stroke-dasharray:none;stroke-opacity:1"
         d="m 91.219841,114.69039 a 2.9903098,2.9903098 0 0 0 -2.990305,-2.99031 2.9903098,2.9903098 0 0 0 -2.990315,2.99031 2.9903098,2.9903098 0 0 0 2.990315,2.9903 2.9903098,2.9903098 0 0 0 2.990305,-2.9903 z"
         id="path11684-6"
         inkscape:connector-curvature="0" /></g><g
       transform="translate(145.28977,-91.094382)"
       id="g17530"><rect
         style="fill:none;fill-opacity:1;stroke:#da432e;stroke-width:1.60000026;stroke-linecap:round;stroke-miterlimit:6;stroke-dasharray:none;stroke-opacity:1"
         id="rect17353"
         width="11.415044"
         height="10.803523"
         x="73.889503"
         y="-241.61795"
         rx="0"
         transform="scale(1,-1)" /><circle
         style="fill:#da432e;fill-opacity:1"
         id="path17432"
         cx="79.597023"
         cy="-236.21619"
         r="1.1797627"
         transform="scale(1,-1)" /></g><g
       transform="translate(145.0015,-94.841936)"
       id="g17615"><rect
         style="fill:none;fill-opacity:1;stroke:#da432e;stroke-width:1.60000026;stroke-linecap:round;stroke-miterlimit:6;stroke-dasharray:none;stroke-opacity:1"
         id="rect17353-9"
         width="11.415044"
         height="10.803523"
         x="95.055893"
         y="-240.85878"
         rx="0"
         transform="scale(1,-1)" /><circle
         style="fill:#da432e;fill-opacity:1"
         id="path17432-6"
         cx="97.580223"
         cy="-235.45702"
         r="1.1797627"
         transform="scale(1,-1)" /><circle
         style="fill:#da432e;fill-opacity:1"
         id="path17432-8"
         cx="103.8159"
         cy="-235.45702"
         r="1.1797627"
         transform="scale(1,-1)" /></g><g
       transform="translate(109.83215,-80.716541)"
       id="g17626"><rect
         style="fill:none;fill-opacity:1;stroke:#da432e;stroke-width:1.60000026;stroke-linecap:round;stroke-miterlimit:6;stroke-dasharray:none;stroke-opacity:1"
         id="rect17353-9-0"
         width="11.415044"
         height="10.803523"
         x="99.928917"
         y="-209.49486"
         rx="0"
         transform="scale(1,-1)" /><circle
         style="fill:#da432e;fill-opacity:1"
         id="path17432-4"
         cx="102.99417"
         cy="-206.28244"
         r="1.1797627"
         transform="scale(1,-1)" /><circle
         style="fill:#da432e;fill-opacity:1"
         id="path17432-95"
         cx="102.99417"
         cy="-201.74214"
         r="1.1797627"
         transform="scale(1,-1)" /><circle
         style="fill:#da432e;fill-opacity:1"
         id="path17432-0"
         cx="108.54343"
         cy="-206.28244"
         r="1.1797627"
         transform="scale(1,-1)" /><circle
         style="fill:#da432e;fill-opacity:1"
         id="path17432-48"
         cx="108.54343"
         cy="-201.74214"
         r="1.1797627"
         transform="scale(1,-1)" /></g><g
       transform="translate(110.12042,-90.229562)"
       id="g17633"><circle
         style="fill:#da432e;fill-opacity:1"
         id="path17432-7"
         cx="125.08568"
         cy="-207.48737"
         transform="scale(1,-1)"
         r="1.1797627" /><rect
         style="fill:none;fill-opacity:1;stroke:#da432e;stroke-width:1.60000026;stroke-linecap:round;stroke-miterlimit:6;stroke-dasharray:none;stroke-opacity:1"
         id="rect17353-9-0-1"
         width="11.415044"
         height="10.803523"
         x="119.37816"
         y="-212.88913"
         rx="0"
         transform="scale(1,-1)" /><circle
         style="fill:#da432e;fill-opacity:1"
         id="path17432-4-7"
         cx="122.42406"
         cy="-210.0573"
         r="1.1797627"
         transform="scale(1,-1)" /><circle
         style="fill:#da432e;fill-opacity:1"
         id="path17432-95-2"
         cx="122.42406"
         cy="-205.517"
         r="1.1797627"
         transform="scale(1,-1)" /><circle
         style="fill:#da432e;fill-opacity:1"
         id="path17432-0-7"
         cx="127.97333"
         cy="-210.0573"
         r="1.1797627"
         transform="scale(1,-1)" /><circle
         style="fill:#da432e;fill-opacity:1"
         id="path17432-48-2"
         cx="127.97333"
         cy="-205.517"
         r="1.1797627"
         transform="scale(1,-1)" /></g><g
       transform="translate(148.74905,-94.553662)"
       id="g17620"><rect
         style="fill:none;fill-opacity:1;stroke:#da432e;stroke-width:1.60000026;stroke-linecap:round;stroke-miterlimit:6;stroke-dasharray:none;stroke-opacity:1"
         id="rect17353-9-2"
         width="11.415044"
         height="10.803523"
         x="114.09953"
         y="-240.15504"
         rx="0"
         transform="scale(1,-1)" /><circle
         style="fill:#da432e;fill-opacity:1"
         id="path17432-6-6"
         cx="116.62386"
         cy="-234.75328"
         r="1.1797627"
         transform="scale(1,-1)" /><circle
         style="fill:#da432e;fill-opacity:1"
         id="path17432-8-1"
         cx="122.85952"
         cy="-234.75328"
         r="1.1797627"
         transform="scale(1,-1)" /><circle
         style="fill:#da432e;fill-opacity:1"
         id="path17432-8-0"
         cx="119.70511"
         cy="-234.75328"
         r="1.1797627"
         transform="scale(1,-1)" /></g><g
       transform="translate(167.48683,-90.229563)"
       id="g17641"><rect
         style="fill:none;fill-opacity:1;stroke:#da432e;stroke-width:1.60000026;stroke-linecap:round;stroke-miterlimit:6;stroke-dasharray:none;stroke-opacity:1"
         id="rect17353-2"
         width="11.415044"
         height="10.803523"
         x="84.650429"
         y="-209.49486"
         rx="0"
         transform="scale(1,-1)" /><circle
         style="fill:#da432e;fill-opacity:1"
         id="path17432-9"
         cx="90.462151"
         cy="-206.83789"
         r="1.1797627"
         transform="scale(1,-1)" /><circle
         style="fill:#da432e;fill-opacity:1"
         id="path17432-2"
         cx="90.462151"
         cy="-203.95515"
         r="1.1797627"
         transform="scale(1,-1)" /><circle
         style="fill:#da432e;fill-opacity:1"
         id="path17432-66"
         cx="90.462151"
         cy="-201.14449"
         r="1.1797627"
         transform="scale(1,-1)" /><circle
         style="fill:#da432e;fill-opacity:1"
         id="path17432-9-6"
         cx="93.733398"
         cy="-206.82295"
         r="1.1797627"
         transform="scale(1,-1)" /><circle
         style="fill:#da432e;fill-opacity:1"
         id="path17432-2-1"
         cx="93.733398"
         cy="-203.94022"
         r="1.1797627"
         transform="scale(1,-1)" /><circle
         style="fill:#da432e;fill-opacity:1"
         id="path17432-66-5"
         cx="93.733398"
         cy="-201.12955"
         r="1.1797627"
         transform="scale(1,-1)" /><circle
         style="fill:#da432e;fill-opacity:1"
         id="path17432-9-9"
         cx="87.39138"
         cy="-206.82295"
         r="1.1797627"
         transform="scale(1,-1)" /><circle
         style="fill:#da432e;fill-opacity:1"
         id="path17432-2-4"
         cx="87.39138"
         cy="-203.94022"
         r="1.1797627"
         transform="scale(1,-1)" /><circle
         style="fill:#da432e;fill-opacity:1"
         id="path17432-66-9"
         cx="87.39138"
         cy="-201.12955"
         r="1.1797627"
         transform="scale(1,-1)" /></g></g></svg>