<?xml version="1.0" encoding="UTF-8" standalone="no"?>
<!-- Created with Inkscape (http://www.inkscape.org/) -->

<svg
   xmlns:dc="http://purl.org/dc/elements/1.1/"
   xmlns:cc="http://creativecommons.org/ns#"
   xmlns:rdf="http://www.w3.org/1999/02/22-rdf-syntax-ns#"
   xmlns:svg="http://www.w3.org/2000/svg"
   xmlns="http://www.w3.org/2000/svg"
   xmlns:sodipodi="http://sodipodi.sourceforge.net/DTD/sodipodi-0.dtd"
   xmlns:inkscape="http://www.inkscape.org/namespaces/inkscape"
   id="svg4982"
   version="1.1"
   inkscape:version="0.91 r13725"
   xml:space="preserve"
   width="313.73056"
   height="101.1906"
   viewBox="0 0 313.73056 101.19061"
   sodipodi:docname="spacegen.svg"><sodipodi:namedview
     pagecolor="#ffffff"
     bordercolor="#666666"
     borderopacity="1"
     objecttolerance="10"
     gridtolerance="10"
     guidetolerance="10"
     inkscape:pageopacity="0"
     inkscape:pageshadow="2"
     inkscape:window-width="1920"
     inkscape:window-height="1136"
     id="namedview4984"
     showgrid="false"
     fit-margin-top="0"
     fit-margin-left="0"
     fit-margin-right="0"
     fit-margin-bottom="0"
     inkscape:zoom="1.3875721"
     inkscape:cx="-57.566341"
     inkscape:cy="-2.641274"
     inkscape:window-x="0"
     inkscape:window-y="30"
     inkscape:window-maximized="1"
     inkscape:current-layer="g4990" /><metadata
     id="metadata4988"><rdf:RDF><cc:Work
         rdf:about=""><dc:format>image/svg+xml</dc:format><dc:type
           rdf:resource="http://purl.org/dc/dcmitype/StillImage" /><dc:title></dc:title></cc:Work></rdf:RDF></metadata><defs
     id="defs4986" /><g
     transform="matrix(1.25,0,0,-1.25,-82.619008,211.30357)"
     inkscape:label="01metodos"
     inkscape:groupmode="layer"
     id="g4990"><g
       transform="translate(141.052,192.969)"
       id="g5034"><path
         inkscape:connector-curvature="0"
         id="path5036"
         style="fill:none;stroke:#da432e;stroke-width:2.31135988;stroke-linecap:butt;stroke-linejoin:miter;stroke-miterlimit:4;stroke-dasharray:none;stroke-opacity:1"
         d="m 6.29929,-87.02933 c -6.56463,8.5488 -6.34311,21.10384 -5.56031,31.85388 0.74686,10.25609 -0.11796,26.09144 9.65155,29.30103 21.58541,7.09151 25.15778,-34.35367 55.56407,-39.47917 15.04249,-2.53569 -12.72283,-32.85291 -27.51872,-36.566 -11.45112,-2.87371 -24.94606,5.52634 -32.13659,14.89026 z" /></g><path
       inkscape:connector-curvature="0"
       id="path11655"
       d="m 156.5661,156.18565 c 0.1022,-0.18396 -0.19756,-0.22853 -0.30576,-0.16987 -0.29322,0.15897 -0.22898,0.57438 -0.034,0.78139 0.34881,0.3703 0.94679,0.25451 1.25701,-0.10192 0.45527,-0.52307 0.28235,-1.32482 -0.23781,-1.73264 -0.69329,-0.54356 -1.70491,-0.31126 -2.20827,0.37371 -0.63342,0.86196 -0.34075,2.08601 0.5096,2.68389 1.02989,0.72412 2.46768,0.37058 3.15952,-0.64549 0.81532,-1.1974 0.40061,-2.8497 -0.78139,-3.63515 -1.36466,-0.90683 -3.23195,-0.43079 -4.11077,0.91728 -0.99857,1.53177 -0.46107,3.61438 1.05317,4.5864 1.69876,1.09047 3.99692,0.49142 5.06203,-1.18907 1.18247,-1.86566 0.52183,-4.37955 -1.32496,-5.53765"
       style="fill:none;fill-rule:evenodd;stroke:#da432e;stroke-width:0.80000001px;stroke-linecap:butt;stroke-linejoin:miter;stroke-opacity:1" /><path
       inkscape:connector-curvature="0"
       id="path11657-7"
       d="m 180.40742,123.56124 -0.74398,5.16813 -3.58635,-6.53607 4.68528,2.30461 -7.32441,1.39107 3.63964,-3.7438 -0.94038,7.3958 -2.43586,-4.61841 6.74323,3.17978 -5.14509,0.88947 z"
       inkscape:transform-center-y="-0.012212728"
       inkscape:transform-center-x="0.44948007"
       style="fill:none;fill-opacity:1;stroke:#da432e;stroke-width:1.16279781;stroke-linecap:round;stroke-miterlimit:6;stroke-dasharray:none;stroke-opacity:1" /><path
       inkscape:connector-curvature="0"
       id="path11684"
       d="m 171.18039,112.83521 a 3.8277433,3.8277433 0 0 0 -3.82774,-3.82774 3.8277433,3.8277433 0 0 0 -3.82775,3.82774 3.8277433,3.8277433 0 0 0 3.82775,3.82774 3.8277433,3.8277433 0 0 0 3.82774,-3.82774 z"
       style="fill:#da432e;fill-opacity:1;stroke:none;stroke-width:1.60000002;stroke-linecap:round;stroke-miterlimit:6;stroke-dasharray:none;stroke-opacity:1" /><g
       id="g12908"
       transform="translate(4.8000006,-11.200001)"><path
         style="fill:none;fill-rule:evenodd;stroke:#000000;stroke-width:0.80000001px;stroke-linecap:butt;stroke-linejoin:miter;stroke-opacity:1"
         d="m 169.5047,143.84838 c 42.95273,27.38596 62.26704,16.64779 62.26704,16.64779"
         id="path11688"
         inkscape:connector-curvature="0"
         sodipodi:nodetypes="cc" /><path
         style="fill:none;fill-rule:evenodd;stroke:#000000;stroke-width:0.80000001px;stroke-linecap:butt;stroke-linejoin:miter;stroke-opacity:1"
         d="m 231.51285,165.31131 0.37846,-4.86256 -4.53764,-2.05573"
         id="path11690"
         inkscape:connector-curvature="0"
         sodipodi:nodetypes="ccc" /></g><path
       inkscape:connector-curvature="0"
       id="path11657-9-3"
       d="m 171.96698,136.75852 -2.8163,0.50679 -2.01409,-2.03269 -0.38829,2.83507 -2.5556,1.28738 2.57632,1.24537 0.43465,2.82834 1.98055,-2.06539 2.82422,0.46063 -1.35228,-2.52186 z"
       inkscape:transform-center-y="-0.013622727"
       inkscape:transform-center-x="0.50138363"
       style="fill:none;fill-opacity:1;stroke:#da432e;stroke-width:1.29707313;stroke-linecap:round;stroke-miterlimit:6;stroke-dasharray:none;stroke-opacity:1" /><g
       id="g12912"
       transform="translate(-1.6000006,8.000001)"><path
         style="fill:none;fill-rule:evenodd;stroke:#000000;stroke-width:0.80000001px;stroke-linecap:butt;stroke-linejoin:miter;stroke-opacity:1"
         d="M 150.57962,121.86171 C 100.11495,114.91589 92.350708,94.226099 92.350708,94.226099"
         id="path11688-2"
         inkscape:connector-curvature="0"
         sodipodi:nodetypes="cc" /><path
         style="fill:none;fill-rule:evenodd;stroke:#000000;stroke-width:0.80000001px;stroke-linecap:butt;stroke-linejoin:miter;stroke-opacity:1"
         d="m 97.073183,93.737761 -4.866515,0.323725 -1.382816,4.785815"
         id="path11690-6"
         inkscape:connector-curvature="0"
         sodipodi:nodetypes="ccc"
         inkscape:transform-center-x="0.22766305"
         inkscape:transform-center-y="-9.4095298" /></g><g
       id="g12916"
       transform="translate(0,9.6000012)"><path
         transform="scale(1,-1)"
         style="fill:none;fill-rule:evenodd;stroke:#da432e;stroke-width:0.80000001px;stroke-linecap:butt;stroke-linejoin:miter;stroke-opacity:1"
         d="m 69.756233,-83.812447 c 0.102202,0.183964 -0.197556,0.228528 -0.30576,0.169867 -0.293224,-0.158968 -0.228977,-0.574372 -0.03397,-0.781387 0.348815,-0.370301 0.946788,-0.254507 1.257013,0.10192 0.455268,0.523072 0.282346,1.324818 -0.237813,1.73264 -0.69329,0.543564 -1.704912,0.31126 -2.208267,-0.373706 -0.63342,-0.86196 -0.340749,-2.08601 0.5096,-2.683894 1.029887,-0.724117 2.467675,-0.370575 3.15952,0.645494 0.815316,1.197401 0.400614,2.849695 -0.781386,3.635147 -1.364666,0.906835 -3.231952,0.430792 -4.110774,-0.91728 -0.998573,-1.531766 -0.461071,-3.614376 1.053173,-4.586401 1.698753,-1.090465 3.99692,-0.491421 5.062027,1.189067 1.182472,1.865659 0.521824,4.379555 -1.324959,5.537654"
         id="path11655-0-1"
         inkscape:connector-curvature="0" /><path
         transform="matrix(0.79011611,0.18139325,0.18139325,-0.79011611,-4.2400295,-48.9389)"
         style="fill:none;fill-opacity:1;stroke:#da432e;stroke-width:1.60000002;stroke-linecap:round;stroke-miterlimit:6;stroke-dasharray:none;stroke-opacity:1"
         inkscape:transform-center-x="0.50138363"
         inkscape:transform-center-y="-0.013622727"
         d="m 158.55031,-128.56989 -3.24607,-1.38664 -2.98253,1.88793 0.31569,-3.5157 -2.71718,-2.25315 3.44117,-0.78618 1.30323,-3.28045 1.81108,3.02981 3.52261,0.22573 -2.32187,2.6587 z"
         id="path11657-9-8"
         inkscape:connector-curvature="0" /><g
         transform="matrix(1,0,0,-1,-168.74826,-80.3125)"
         style="font-style:normal;font-weight:normal;font-size:32px;line-height:125%;font-family:sans-serif;letter-spacing:0px;word-spacing:0px;fill:#da432e;fill-opacity:1;stroke:none;stroke-width:1px;stroke-linecap:butt;stroke-linejoin:miter;stroke-opacity:1"
         id="text11710-7"><path
           d="m 251.25131,-168.99559 0,3.80762 3.80762,0 0,1.16211 -3.80762,0 0,3.80762 -1.14843,0 0,-3.80762 -3.80762,0 0,-1.16211 3.80762,0 0,-3.80762 1.14843,0 z"
           style="font-size:14px"
           id="path11715-9"
           inkscape:connector-curvature="0" /></g><path
         transform="matrix(0.70832187,0.1626151,0.1626151,-0.70832187,31.943951,-35.27403)"
         style="fill:none;fill-opacity:1;stroke:#da432e;stroke-width:1.60000002;stroke-linecap:round;stroke-miterlimit:6;stroke-dasharray:none;stroke-opacity:1"
         inkscape:transform-center-x="0.44948007"
         inkscape:transform-center-y="-0.012212728"
         d="m 158.55031,-128.56989 0.59345,-7.16006 -6.82205,7.66135 6.99301,-1.64818 -9.3945,-4.12067 3.72847,6.14143 1.01593,-10.20806 -4.68869,5.44379 10.02238,-2.18825 -6.62624,-2.77698 z"
         id="path11657-7-6-2"
         inkscape:connector-curvature="0" /><g
         transform="matrix(1,0,0,-1,-146.89126,-115.27717)"
         style="font-style:normal;font-weight:normal;font-size:32px;line-height:125%;font-family:sans-serif;letter-spacing:0px;word-spacing:0px;fill:#da432e;fill-opacity:1;stroke:none;stroke-width:1px;stroke-linecap:butt;stroke-linejoin:miter;stroke-opacity:1"
         id="text11710-0-0"><g
           style="font-style:normal;font-weight:normal;font-size:32px;line-height:125%;font-family:sans-serif;letter-spacing:0px;word-spacing:0px;fill:#da432e;fill-opacity:1;stroke:none;stroke-width:1px;stroke-linecap:butt;stroke-linejoin:miter;stroke-opacity:1"
           id="text11765-2"
           transform="translate(8.5612805,-52.998403)"><path
             d="m 241.35696,-147.9304 8.76368,0 0,1.14843 -8.76368,0 0,-1.14843 z m 0,2.78906 8.76368,0 0,1.16211 -8.76368,0 0,-1.16211 z"
             style="font-size:14px"
             id="path11770-3"
             inkscape:connector-curvature="0" /></g></g></g><g
       id="g13087"
       transform="translate(1.6000003,4.8000009)"><g
         transform="translate(14.65079,-20.800001)"
         id="g12887"><path
           inkscape:connector-curvature="0"
           id="path11655-0"
           d="m 244.97614,140.54963 c 0.1022,-0.18396 -0.19756,-0.22853 -0.30576,-0.16986 -0.29322,0.15896 -0.22898,0.57437 -0.034,0.78138 0.34881,0.3703 0.94679,0.25451 1.25701,-0.10192 0.45527,-0.52307 0.28235,-1.32481 -0.23781,-1.73264 -0.69329,-0.54356 -1.70491,-0.31126 -2.20827,0.37371 -0.63342,0.86196 -0.34075,2.08601 0.5096,2.68389 1.02989,0.72412 2.46768,0.37058 3.15952,-0.64549 0.81532,-1.1974 0.40061,-2.8497 -0.78139,-3.63515 -1.36466,-0.90683 -3.23195,-0.43079 -4.11077,0.91728 -0.99857,1.53177 -0.46107,3.61438 1.05317,4.5864 1.69876,1.09047 3.99692,0.49142 5.06203,-1.18906 1.18247,-1.86566 0.52183,-4.37956 -1.32496,-5.53766"
           style="fill:none;fill-rule:evenodd;stroke:#da432e;stroke-width:0.80000001px;stroke-linecap:butt;stroke-linejoin:miter;stroke-opacity:1" /><path
           d="m 240.52799,134.29236 0,-1.125 -0.48438,0 q -1.94531,0 -2.60937,0.57812 -0.65625,0.57813 -0.65625,2.30469 l 0,1.86719 q 0,1.17968 -0.42188,1.63281 -0.42187,0.45312 -1.53125,0.45312 l -0.47656,0 0,1.11719 0.47656,0 q 1.11719,0 1.53125,0.44531 0.42188,0.45313 0.42188,1.61719 l 0,1.875 q 0,1.72656 0.65625,2.29688 0.66406,0.57812 2.60937,0.57812 l 0.48438,0 0,-1.11719 -0.53125,0 q -1.10157,0 -1.4375,-0.34375 -0.33594,-0.34375 -0.33594,-1.44531 l 0,-1.9375 q 0,-1.22656 -0.35938,-1.78125 -0.35156,-0.55469 -1.21093,-0.75 0.86718,-0.21094 1.21875,-0.76562 0.35156,-0.55469 0.35156,-1.77344 l 0,-1.9375 q 0,-1.10156 0.33594,-1.44531 0.33593,-0.34375 1.4375,-0.34375 l 0.53125,0 z"
           style="font-style:normal;font-weight:normal;font-size:medium;line-height:125%;font-family:sans-serif;letter-spacing:0px;word-spacing:0px;fill:#da432e;fill-opacity:1;stroke:none;stroke-width:1px;stroke-linecap:butt;stroke-linejoin:miter;stroke-opacity:1"
           id="path12002"
           inkscape:connector-curvature="0" /><path
           d="m 251.3983,136.19027 1.64844,0 0,-1.34375 -1.28125,-2.5 -1.00782,0 0.64063,2.5 0,1.34375 z"
           style="font-style:normal;font-weight:normal;font-size:medium;line-height:125%;font-family:sans-serif;letter-spacing:0px;word-spacing:0px;fill:#da432e;fill-opacity:1;stroke:none;stroke-width:1px;stroke-linecap:butt;stroke-linejoin:miter;stroke-opacity:1"
           id="path12004"
           inkscape:connector-curvature="0" /><path
           d="m 266.9733,136.19027 1.64844,0 0,-1.34375 -1.28125,-2.5 -1.00782,0 0.64063,2.5 0,1.34375 z"
           style="font-style:normal;font-weight:normal;font-size:medium;line-height:125%;font-family:sans-serif;letter-spacing:0px;word-spacing:0px;fill:#da432e;fill-opacity:1;stroke:none;stroke-width:1px;stroke-linecap:butt;stroke-linejoin:miter;stroke-opacity:1"
           id="path12006"
           inkscape:connector-curvature="0" /><path
           d="m 282.25815,134.29236 0.54687,0 q 1.09375,0 1.42188,0.33593 0.33594,0.33594 0.33594,1.45313 l 0,1.9375 q 0,1.21875 0.35156,1.77344 0.35156,0.55468 1.21875,0.76562 -0.86719,0.19531 -1.21875,0.75 -0.35156,0.55469 -0.35156,1.78125 l 0,1.9375 q 0,1.10938 -0.33594,1.44531 -0.32813,0.34375 -1.42188,0.34375 l -0.54687,0 0,1.11719 0.49219,0 q 1.94531,0 2.59375,-0.57812 0.65625,-0.57032 0.65625,-2.29688 l 0,-1.875 q 0,-1.16406 0.42187,-1.61719 0.42188,-0.44531 1.53125,-0.44531 l 0.48438,0 0,-1.11719 -0.48438,0 q -1.10937,0 -1.53125,-0.45312 -0.42187,-0.45313 -0.42187,-1.63281 l 0,-1.86719 q 0,-1.72656 -0.65625,-2.30469 -0.64844,-0.57812 -2.59375,-0.57812 l -0.49219,0 0,1.125 z"
           style="font-style:normal;font-weight:normal;font-size:medium;line-height:125%;font-family:sans-serif;letter-spacing:0px;word-spacing:0px;fill:#da432e;fill-opacity:1;stroke:none;stroke-width:1px;stroke-linecap:butt;stroke-linejoin:miter;stroke-opacity:1"
           id="path12010"
           inkscape:connector-curvature="0" /><path
           inkscape:connector-curvature="0"
           id="path11657-7-7"
           d="m 262.7948,138.14513 -0.74398,5.16813 -3.58636,-6.53607 4.68528,2.30461 -7.32441,1.39107 3.63965,-3.7438 -0.94038,7.3958 -2.43586,-4.61841 6.74323,3.17978 -5.14509,0.88946 z"
           inkscape:transform-center-y="-0.012212728"
           inkscape:transform-center-x="0.44948007"
           style="fill:none;fill-opacity:1;stroke:#da432e;stroke-width:1.16279781;stroke-linecap:round;stroke-miterlimit:6;stroke-dasharray:none;stroke-opacity:1" /><path
           inkscape:connector-curvature="0"
           id="path11657-9-3-5"
           d="m 278.19339,137.97429 -2.8163,0.50679 -2.01408,-2.03269 -0.3883,2.83507 -2.55559,1.28737 2.57632,1.24538 0.43465,2.82834 1.98055,-2.06539 2.82422,0.46063 -1.35228,-2.52186 z"
           inkscape:transform-center-y="-0.013622727"
           inkscape:transform-center-x="0.50138363"
           style="fill:none;fill-opacity:1;stroke:#da432e;stroke-width:1.29707313;stroke-linecap:round;stroke-miterlimit:6;stroke-dasharray:none;stroke-opacity:1" /></g><g
         transform="translate(-1.1389766e-7,-20.800001)"
         id="g12896"><path
           d="m 261.51997,154.31041 0,-1.125 -0.48438,0 q -1.94531,0 -2.60937,0.57812 -0.65625,0.57813 -0.65625,2.30469 l 0,1.86719 q 0,1.17968 -0.42188,1.63281 -0.42187,0.45312 -1.53125,0.45312 l -0.47656,0 0,1.11719 0.47656,0 q 1.11719,0 1.53125,0.44531 0.42188,0.45313 0.42188,1.61719 l 0,1.875 q 0,1.72656 0.65625,2.29688 0.66406,0.57812 2.60937,0.57812 l 0.48438,0 0,-1.11719 -0.53125,0 q -1.10157,0 -1.4375,-0.34375 -0.33594,-0.34375 -0.33594,-1.44531 l 0,-1.9375 q 0,-1.22656 -0.35938,-1.78125 -0.35156,-0.55469 -1.21093,-0.75 0.86718,-0.21094 1.21875,-0.76562 0.35156,-0.55469 0.35156,-1.77344 l 0,-1.9375 q 0,-1.10156 0.33594,-1.44531 0.33593,-0.34375 1.4375,-0.34375 l 0.53125,0 z"
           style="font-style:normal;font-weight:normal;font-size:medium;line-height:125%;font-family:sans-serif;letter-spacing:0px;word-spacing:0px;fill:#da432e;fill-opacity:1;stroke:none;stroke-width:1px;stroke-linecap:butt;stroke-linejoin:miter;stroke-opacity:1"
           id="path11894"
           inkscape:connector-curvature="0" /><path
           d="m 267.42153,154.31041 0.54687,0 q 1.09375,0 1.42188,0.33593 0.33594,0.33594 0.33594,1.45313 l 0,1.9375 q 0,1.21875 0.35156,1.77344 0.35156,0.55468 1.21875,0.76562 -0.86719,0.19531 -1.21875,0.75 -0.35156,0.55469 -0.35156,1.78125 l 0,1.9375 q 0,1.10938 -0.33594,1.44531 -0.32813,0.34375 -1.42188,0.34375 l -0.54687,0 0,1.11719 0.49219,0 q 1.94531,0 2.59375,-0.57812 0.65625,-0.57032 0.65625,-2.29688 l 0,-1.875 q 0,-1.16406 0.42187,-1.61719 0.42188,-0.44531 1.53125,-0.44531 l 0.48438,0 0,-1.11719 -0.48438,0 q -1.10937,0 -1.53125,-0.45312 -0.42187,-0.45313 -0.42187,-1.63281 l 0,-1.86719 q 0,-1.72656 -0.65625,-2.30469 -0.64844,-0.57812 -2.59375,-0.57812 l -0.49219,0 0,1.125 z"
           style="font-style:normal;font-weight:normal;font-size:medium;line-height:125%;font-family:sans-serif;letter-spacing:0px;word-spacing:0px;fill:#da432e;fill-opacity:1;stroke:none;stroke-width:1px;stroke-linecap:butt;stroke-linejoin:miter;stroke-opacity:1"
           id="path11896"
           inkscape:connector-curvature="0" /><path
           inkscape:connector-curvature="0"
           id="path11655-2"
           d="m 264.41642,160.92804 c 0.1022,-0.18396 -0.19756,-0.22853 -0.30576,-0.16987 -0.29323,0.15897 -0.22898,0.57437 -0.034,0.78139 0.34881,0.3703 0.94678,0.25451 1.25701,-0.10192 0.45527,-0.52307 0.28234,-1.32482 -0.23781,-1.73264 -0.69329,-0.54356 -1.70492,-0.31126 -2.20827,0.37371 -0.63342,0.86196 -0.34075,2.08601 0.5096,2.68389 1.02988,0.72412 2.46767,0.37058 3.15952,-0.64549 0.81531,-1.19741 0.40061,-2.8497 -0.78139,-3.63515 -1.36466,-0.90684 -3.23195,-0.43079 -4.11077,0.91728 -0.99857,1.53177 -0.46107,3.61437 1.05317,4.5864 1.69875,1.09046 3.99692,0.49142 5.06203,-1.18907 1.18247,-1.86566 0.52182,-4.37955 -1.32496,-5.53765"
           style="fill:none;fill-rule:evenodd;stroke:#da432e;stroke-width:0.80000001px;stroke-linecap:butt;stroke-linejoin:miter;stroke-opacity:1" /><path
           sodipodi:nodetypes="ccscssssccscsscsccscsscccsscsc"
           d="m 284.688,154.31041 0,-1.125 -0.48438,0 c -1.29687,0 -2.16666,0.19271 -2.60937,0.57812 -0.4375,0.38542 -0.65625,1.15365 -0.65625,2.30469 l 0,1.86719 c 0,0.78646 -0.14062,1.33073 -0.42188,1.63281 -0.28124,0.30208 -0.79166,0.45312 -1.53125,0.45312 l -0.47656,0 0,1.11719 0.47656,0 c 0.7448,0 1.25521,0.14844 1.53125,0.44531 0.28126,0.30209 0.42188,0.84115 0.42188,1.61719 l 0,1.875 c 0,1.15104 0.21875,1.91667 0.65625,2.29687 0.44271,0.38543 1.3125,0.57813 2.60937,0.57813 l 0.48438,0 0,-1.11719 -0.53125,0 c -0.73438,0 -1.21354,-0.11458 -1.4375,-0.34375 -0.22396,-0.22916 -0.33594,-0.71093 -0.33594,-1.44531 l 0,-1.9375 c 0,-0.8177 -0.11979,-1.41145 -0.35938,-1.78125 -0.23437,-0.36979 -0.63801,-0.61979 -1.21093,-0.75 0.57812,-0.14062 0.98437,-0.39583 1.21875,-0.76562 0.23438,-0.36979 0.35156,-0.96094 0.35156,-1.77344 l 0,-1.9375 c 0,-0.73437 0.11198,-1.21614 0.33594,-1.44532 0.22396,-0.22916 0.70312,-0.34374 1.4375,-0.34374 z"
           style="font-style:normal;font-weight:normal;font-size:medium;line-height:125%;font-family:sans-serif;letter-spacing:0px;word-spacing:0px;fill:#da432e;fill-opacity:1;stroke:none;stroke-width:1px;stroke-linecap:butt;stroke-linejoin:miter;stroke-opacity:1"
           id="path11894-8"
           inkscape:connector-curvature="0" /><path
           sodipodi:nodetypes="cscssscssscsccscsscsccscsscscc"
           d="m 309.29999,154.31042 0.54687,0 c 0.72917,0 1.20313,0.11197 1.42188,0.33592 0.22396,0.22397 0.33594,0.70833 0.33594,1.45313 l 0,1.9375 c 0,0.8125 0.11719,1.40364 0.35156,1.77344 0.23437,0.36978 0.64062,0.62499 1.21875,0.76562 -0.57813,0.1302 -0.98438,0.3802 -1.21875,0.75 -0.23437,0.3698 -0.35156,0.96355 -0.35156,1.78125 l 0,1.9375 c 0,0.73958 -0.11198,1.22136 -0.33594,1.44531 -0.21875,0.22917 -0.69271,0.34375 -1.42188,0.34375 l -0.54687,0 0,1.11719 0.49219,0 c 1.29687,0 2.16146,-0.1927 2.59375,-0.57813 0.4375,-0.3802 0.65625,-1.14582 0.65625,-2.29687 l 0,-1.875 c 0,-0.77603 0.14062,-1.31511 0.42187,-1.61719 0.28125,-0.29688 0.79167,-0.44531 1.53125,-0.44531 l 0.48438,0 0,-1.11719 -0.48438,0 c -0.73958,0 -1.25,-0.15103 -1.53125,-0.45312 -0.28125,-0.30208 -0.42187,-0.84636 -0.42187,-1.63281 l 0,-1.86719 c 0,-1.15105 -0.21875,-1.91927 -0.65625,-2.30469 -0.43229,-0.38542 -1.29688,-0.57812 -2.59375,-0.57812 l -0.49219,0 z"
           style="font-style:normal;font-weight:normal;font-size:medium;line-height:125%;font-family:sans-serif;letter-spacing:0px;word-spacing:0px;fill:#da432e;fill-opacity:1;stroke:none;stroke-width:1px;stroke-linecap:butt;stroke-linejoin:miter;stroke-opacity:1"
           id="path11896-9"
           inkscape:connector-curvature="0" /><path
           inkscape:connector-curvature="0"
           id="path11655-7"
           d="m 289.02035,160.92804 c 0.1022,-0.18396 -0.19756,-0.22853 -0.30576,-0.16987 -0.29323,0.15897 -0.22898,0.57437 -0.034,0.78139 0.34881,0.3703 0.94678,0.25451 1.25701,-0.10192 0.45527,-0.52307 0.28234,-1.32482 -0.23781,-1.73264 -0.69329,-0.54356 -1.70492,-0.31126 -2.20827,0.37371 -0.63342,0.86196 -0.34075,2.08601 0.5096,2.68389 1.02989,0.72412 2.46767,0.37058 3.15952,-0.64549 0.81532,-1.19741 0.40061,-2.8497 -0.78139,-3.63515 -1.36466,-0.90684 -3.23195,-0.43079 -4.11077,0.91728 -0.99857,1.53177 -0.46107,3.61437 1.05317,4.5864 1.69876,1.09046 3.99692,0.49142 5.06203,-1.18907 1.18247,-1.86566 0.52182,-4.37955 -1.32496,-5.53765"
           style="fill:none;fill-rule:evenodd;stroke:#da432e;stroke-width:0.80000001px;stroke-linecap:butt;stroke-linejoin:miter;stroke-opacity:1" /><path
           inkscape:connector-curvature="0"
           id="path11657-9-3-3"
           d="m 306.34352,158.35269 -2.8163,0.5068 -2.01408,-2.0327 -0.3883,2.83508 -2.55559,1.28737 2.57632,1.24538 0.43465,2.82833 1.98055,-2.06538 2.82422,0.46062 -1.35228,-2.52185 z"
           inkscape:transform-center-y="-0.013622727"
           inkscape:transform-center-x="0.50138363"
           style="fill:none;fill-opacity:1;stroke:#da432e;stroke-width:1.29707313;stroke-linecap:round;stroke-miterlimit:6;stroke-dasharray:none;stroke-opacity:1" /><path
           d="m 242.78773,154.31042 0,-1.125 -0.48438,0 q -1.94531,0 -2.60937,0.57812 -0.65625,0.57812 -0.65625,2.30469 l 0,1.86719 q 0,1.17968 -0.42188,1.63281 -0.42187,0.45312 -1.53125,0.45312 l -0.47656,0 0,1.11719 0.47656,0 q 1.11719,0 1.53125,0.44531 0.42188,0.45313 0.42188,1.61718 l 0,1.875 q 0,1.72656 0.65625,2.29687 0.66406,0.57813 2.60937,0.57813 l 0.48438,0 0,-1.11719 -0.53125,0 q -1.10157,0 -1.4375,-0.34375 -0.33594,-0.34375 -0.33594,-1.44531 l 0,-1.93749 q 0,-1.22656 -0.35938,-1.78125 -0.35156,-0.55469 -1.21093,-0.75 0.86718,-0.21094 1.21875,-0.76562 0.35156,-0.55469 0.35156,-1.77344 l 0,-1.9375 q 0,-1.10156 0.33594,-1.44532 0.33593,-0.34374 1.4375,-0.34374 l 0.53125,0 z"
           style="font-style:normal;font-weight:normal;font-size:medium;line-height:125%;font-family:sans-serif;letter-spacing:0px;word-spacing:0px;fill:#da432e;fill-opacity:1;stroke:none;stroke-width:1px;stroke-linecap:butt;stroke-linejoin:miter;stroke-opacity:1"
           id="path11894-1-3"
           inkscape:connector-curvature="0" /><path
           d="m 245.48929,154.31042 0.54687,0 q 1.09375,0 1.42188,0.33593 0.33594,0.33594 0.33594,1.45313 l 0,1.9375 q 0,1.21875 0.35156,1.77344 0.35156,0.55468 1.21875,0.76562 -0.86719,0.19531 -1.21875,0.75 -0.35156,0.55469 -0.35156,1.78125 l 0,1.93749 q 0,1.10937 -0.33594,1.44531 -0.32813,0.34375 -1.42188,0.34375 l -0.54687,0 0,1.11719 0.49219,0 q 1.94531,0 2.59375,-0.57813 0.65625,-0.57031 0.65625,-2.29687 l 0,-1.875 q 0,-1.16405 0.42187,-1.61718 0.42188,-0.44531 1.53125,-0.44531 l 0.48438,0 0,-1.11719 -0.48438,0 q -1.10937,0 -1.53125,-0.45312 -0.42187,-0.45313 -0.42187,-1.63281 l 0,-1.86719 q 0,-1.72657 -0.65625,-2.30469 -0.64844,-0.57812 -2.59375,-0.57812 l -0.49219,0 0,1.125 z"
           style="font-style:normal;font-weight:normal;font-size:medium;line-height:125%;font-family:sans-serif;letter-spacing:0px;word-spacing:0px;fill:#da432e;fill-opacity:1;stroke:none;stroke-width:1px;stroke-linecap:butt;stroke-linejoin:miter;stroke-opacity:1"
           id="path11896-2-1"
           inkscape:connector-curvature="0" /><path
           d="m 295.20653,156.92004 1.64844,0 0,-1.34375 -1.28125,-2.5 -1.00782,0 0.64063,2.5 0,1.34375 z"
           style="font-style:normal;font-weight:normal;font-size:medium;line-height:125%;font-family:sans-serif;letter-spacing:0px;word-spacing:0px;fill:#da432e;fill-opacity:1;stroke:none;stroke-width:1px;stroke-linecap:butt;stroke-linejoin:miter;stroke-opacity:1"
           id="path12004-9"
           inkscape:connector-curvature="0" /></g><g
         transform="translate(8.9980797,-20.800001)"
         id="g12876"><path
           d="m 281.18391,118.4396 1.64844,0 0,-1.34375 -1.28125,-2.5 -1.00782,0 0.64063,2.5 0,1.34375 z"
           style="font-style:normal;font-weight:normal;font-size:medium;line-height:125%;font-family:sans-serif;letter-spacing:0px;word-spacing:0px;fill:#da432e;fill-opacity:1;stroke:none;stroke-width:1px;stroke-linecap:butt;stroke-linejoin:miter;stroke-opacity:1"
           id="path12008"
           inkscape:connector-curvature="0" /><path
           inkscape:connector-curvature="0"
           id="path11655-0-4"
           d="m 244.97613,122.4476 c 0.1022,-0.18397 -0.19756,-0.22853 -0.30576,-0.16987 -0.29323,0.15897 -0.22898,0.57437 -0.034,0.78139 0.34882,0.3703 0.94679,0.25451 1.25702,-0.10192 0.45527,-0.52307 0.28234,-1.32482 -0.23781,-1.73264 -0.6933,-0.54357 -1.70492,-0.31126 -2.20827,0.3737 -0.63342,0.86196 -0.34075,2.08601 0.5096,2.6839 1.02988,0.72412 2.46767,0.37057 3.15952,-0.6455 0.81531,-1.1974 0.40061,-2.84969 -0.78139,-3.63514 -1.36466,-0.90684 -3.23195,-0.4308 -4.11077,0.91728 -0.99857,1.53176 -0.46107,3.61437 1.05317,4.5864 1.69875,1.09046 3.99692,0.49142 5.06203,-1.18907 1.18247,-1.86566 0.52182,-4.37955 -1.32496,-5.53765"
           style="fill:none;fill-rule:evenodd;stroke:#da432e;stroke-width:0.80000001px;stroke-linecap:butt;stroke-linejoin:miter;stroke-opacity:1" /><path
           inkscape:connector-curvature="0"
           id="path11657-7-7-0"
           d="m 262.79479,120.0431 -0.74398,5.16813 -3.58636,-6.53607 4.68529,2.30461 -7.32442,1.39107 3.63965,-3.7438 -0.94038,7.3958 -2.43586,-4.61841 6.74323,3.17977 -5.14509,0.88947 z"
           inkscape:transform-center-y="-0.012212728"
           inkscape:transform-center-x="0.44948007"
           style="fill:none;fill-opacity:1;stroke:#da432e;stroke-width:1.16279781;stroke-linecap:round;stroke-miterlimit:6;stroke-dasharray:none;stroke-opacity:1" /><path
           d="m 241.3807,116.19033 0,-1.125 -0.48438,0 q -1.94531,0 -2.60937,0.57812 -0.65625,0.57813 -0.65625,2.30469 l 0,1.86719 q 0,1.17968 -0.42188,1.63281 -0.42187,0.45312 -1.53125,0.45312 l -0.47656,0 0,1.11719 0.47656,0 q 1.11719,0 1.53125,0.44531 0.42188,0.45313 0.42188,1.61719 l 0,1.875 q 0,1.72656 0.65625,2.29688 0.66406,0.57812 2.60937,0.57812 l 0.48438,0 0,-1.11719 -0.53125,0 q -1.10157,0 -1.4375,-0.34375 -0.33594,-0.34375 -0.33594,-1.44531 l 0,-1.9375 q 0,-1.22656 -0.35938,-1.78125 -0.35156,-0.55469 -1.21093,-0.75 0.86718,-0.21094 1.21875,-0.76562 0.35156,-0.55469 0.35156,-1.77344 l 0,-1.9375 q 0,-1.10156 0.33594,-1.44531 0.33593,-0.34375 1.4375,-0.34375 l 0.53125,0 z"
           style="font-style:normal;font-weight:normal;font-size:medium;line-height:125%;font-family:sans-serif;letter-spacing:0px;word-spacing:0px;fill:#da432e;fill-opacity:1;stroke:none;stroke-width:1px;stroke-linecap:butt;stroke-linejoin:miter;stroke-opacity:1"
           id="path12002-7"
           inkscape:connector-curvature="0" /><path
           d="m 251.3983,118.4396 1.64844,0 0,-1.34375 -1.28125,-2.5 -1.00782,0 0.64063,2.5 0,1.34375 z"
           style="font-style:normal;font-weight:normal;font-size:medium;line-height:125%;font-family:sans-serif;letter-spacing:0px;word-spacing:0px;fill:#da432e;fill-opacity:1;stroke:none;stroke-width:1px;stroke-linecap:butt;stroke-linejoin:miter;stroke-opacity:1"
           id="path12004-8"
           inkscape:connector-curvature="0" /><path
           d="m 266.9733,118.4396 1.64844,0 0,-1.34375 -1.28125,-2.5 -1.00782,0 0.64063,2.5 0,1.34375 z"
           style="font-style:normal;font-weight:normal;font-size:medium;line-height:125%;font-family:sans-serif;letter-spacing:0px;word-spacing:0px;fill:#da432e;fill-opacity:1;stroke:none;stroke-width:1px;stroke-linecap:butt;stroke-linejoin:miter;stroke-opacity:1"
           id="path12006-4"
           inkscape:connector-curvature="0" /><path
           d="m 292.71086,116.19033 0.54687,0 q 1.09375,0 1.42188,0.33593 0.33594,0.33594 0.33594,1.45313 l 0,1.9375 q 0,1.21875 0.35156,1.77344 0.35156,0.55468 1.21875,0.76562 -0.86719,0.19531 -1.21875,0.75 -0.35156,0.55469 -0.35156,1.78125 l 0,1.9375 q 0,1.10938 -0.33594,1.44531 -0.32813,0.34375 -1.42188,0.34375 l -0.54687,0 0,1.11719 0.49219,0 q 1.94531,0 2.59375,-0.57812 0.65625,-0.57032 0.65625,-2.29688 l 0,-1.875 q 0,-1.16406 0.42187,-1.61719 0.42188,-0.44531 1.53125,-0.44531 l 0.48438,0 0,-1.11719 -0.48438,0 q -1.10937,0 -1.53125,-0.45312 -0.42187,-0.45313 -0.42187,-1.63281 l 0,-1.86719 q 0,-1.72656 -0.65625,-2.30469 -0.64844,-0.57812 -2.59375,-0.57812 l -0.49219,0 0,1.125 z"
           style="font-style:normal;font-weight:normal;font-size:medium;line-height:125%;font-family:sans-serif;letter-spacing:0px;word-spacing:0px;fill:#da432e;fill-opacity:1;stroke:none;stroke-width:1px;stroke-linecap:butt;stroke-linejoin:miter;stroke-opacity:1"
           id="path12010-5"
           inkscape:connector-curvature="0" /><path
           inkscape:connector-curvature="0"
           id="path11657-9-3-5-3"
           d="m 278.19339,119.87225 -2.8163,0.50679 -2.01408,-2.03269 -0.3883,2.83507 -2.55559,1.28738 2.57632,1.24537 0.43465,2.82834 1.98055,-2.06539 2.82422,0.46063 -1.35228,-2.52185 z"
           inkscape:transform-center-y="-0.013622727"
           inkscape:transform-center-x="0.50138363"
           style="fill:none;fill-opacity:1;stroke:#da432e;stroke-width:1.29707313;stroke-linecap:round;stroke-miterlimit:6;stroke-dasharray:none;stroke-opacity:1" /><path
           inkscape:connector-curvature="0"
           id="path11684-6"
           d="m 291.4896,122.44814 a 3.8277431,3.8277431 0 0 0 -3.82775,-3.82774 3.8277431,3.8277431 0 0 0 -3.82774,3.82774 3.8277431,3.8277431 0 0 0 3.82774,3.82774 3.8277431,3.8277431 0 0 0 3.82775,-3.82774 z"
           style="fill:#da432e;fill-opacity:1;stroke:none;stroke-width:1.60000002;stroke-linecap:round;stroke-miterlimit:6;stroke-dasharray:none;stroke-opacity:1" /></g></g></g></svg>